<?xml version="1.0" encoding="UTF-8"?>
<svg viewBox="0 0 85 40" xmlns="http://www.w3.org/2000/svg">
<path d="m24.218 4.1024c-0.3243-0.49664-0.7981-0.5109-1.338-0.52716-0.0612-0.00184-0.1232-0.0037-0.1859-0.0063-0.0478-0.0022-0.1005-0.00135-0.1556-4.7e-4 -0.219 0.00352-0.4751 0.00763-0.6041-0.17634-0.1496-0.21329-0.1354-0.62549-0.1237-0.96577 0.0037-0.10753 0.0071-0.20794 0.0051-0.29255-0.021-0.79048-0.0649-1.6302-0.37-1.9109-0.2301-0.21061-0.9185-0.18143-1.5533-0.15452-0.2058 0.008723-0.406 0.017208-0.5831 0.017208h-13.513c-0.27207 0-0.55727-0.022154-0.83749-0.043922-0.54602-0.042415-1.0731-0.083362-1.4475 0.043922-0.54325 0.18563-0.58004 1.1611-0.61467 2.0796l-0.00187 0.04942c-0.02908 0.75827-0.217 1.3434-0.83981 1.2844-0.72436-0.06745-1.4452-0.08871-1.7727 0.56688-0.3868 0.77567-0.30702 1.5876-0.16414 3.042 0.020411 0.20775 0.042109 0.4286 0.063919 0.66433h24.245c0.0139-0.1723 0.0286-0.34239 0.0432-0.50972 0.1135-1.3085 0.2124-2.4485-0.2521-3.1601z" fill="#8047F8"/>
<path d="m2.0699 9.2147c0.37865 5.1248 0.75317 10.255 1.1277 15.386l2.3e-4 0.0031c0.20335 2.7858 0.40671 5.5716 0.61073 8.3566h0.77359c0.05271 0.4359 0.11303 0.9741 0.17662 1.5415 0.12909 1.1518 0.2717 2.4243 0.3916 3.2062h0.08556c0.78797-0.2883 6.2353-2.6167 6.2377-11.886-1e-3 -0.0264-1e-4 -0.0529 0.0026-0.0791h-1.3458c-0.0651-6e-4 -0.1283-0.0224-0.1797-0.0619-0.05143-0.0395-0.08829-0.0947-0.10493-0.157-0.13114-0.3239-0.23689-0.6574-0.31629-0.9974-0.79171 0.4472-1.4204 1.13-1.7965 1.9511-0.35702-0.841-0.40375-1.7792-0.13203-2.6508 0.27173-0.8716 0.84463-1.621 1.6186-2.1174 0.00997-2.705 1.0228-5.3125 2.8466-7.3289l0.0285-0.0251c0.053-0.0458 0.1209-0.0713 0.1913-0.0719 0.0407 4e-4 0.0809 0.0091 0.118 0.0256 0.0376 0.0167 0.0712 0.041 0.0987 0.0714 1.8452 2.0192 2.8526 4.6517 2.8213 7.3727 0.7884 0.4825 1.373 1.2314 1.6452 2.1077s0.2136 1.8205-0.1649 2.6573c-0.3741-0.8224-1.0034-1.5058-1.7966-1.951-0.0484 0.3295-0.1377 0.6519-0.2657 0.9599-0.0442 0.1313-0.1328 0.2157-0.2214 0.2157h-1.4352c0.0023 0.0157 0.0039 0.0315 0.0048 0.0474l6e-4 0.0036v0.0077c5e-4 0.0136 5e-4 0.0273 0 0.041 0.0197 9.5359 5.8113 11.7 6.2995 11.866h0.167c0.0426-0.7511 0.1814-1.7875 0.3167-2.7979 0.0932-0.6962 0.1848-1.3802 0.2421-1.9498h0.7825c0.2505-3.5079 0.5081-7.006 0.7657-10.504l2e-4 -0.0019 1e-4 -1e-3c0.3295-4.4746 0.659-8.9493 0.9736-13.445h-20.518c-0.05906 0.01154-0.05503 0.10815-0.05011 0.20597zm10.216 5.0687h-0.0015 0.0031-0.0016z" clip-rule="evenodd" fill="#8047F8" fill-rule="evenodd"/>
<path d="m31.309 5.6982c0-1.265 0.4358-2.2455 1.3074-2.9412 0.8875-0.71159 2.2187-1.0674 3.9937-1.0674 1.1728 0 2.1712 0.11069 2.9953 0.33207v3.2733c-0.8875-0.26883-1.7671-0.40324-2.6387-0.40324-0.8558 0-1.4105 0.10279-1.664 0.30836-0.2536 0.18975-0.3804 0.47439-0.3804 0.85391v7.9698c0 0.7591 0.5943 1.1386 1.7829 1.1386 1.2044 0 2.1949-0.1186 2.9715-0.3558v3.2022c-0.8558 0.2372-1.8938 0.3558-3.1141 0.3558-1.775 0-3.0983-0.3479-3.9699-1.0437-0.8558-0.6958-1.2837-1.6762-1.2837-2.9413v-8.6814z" fill="#403937"/>
<path d="m46.62 7.9516c0-0.6009-0.3328-0.90135-0.9984-0.90135-0.6657 0-0.9985 0.30045-0.9985 0.90135v6.5941c0 0.6009 0.3328 0.9013 0.9985 0.9013 0.6656 0 0.9984-0.3004 0.9984-0.9013v-6.5941zm-5.5151-0.1186c0-1.2018 0.3724-2.1348 1.1173-2.7989 0.7607-0.67997 1.8938-1.02 3.3994-1.02 1.5055 0 2.6307 0.33998 3.3756 1.02 0.7607 0.66415 1.141 1.5971 1.141 2.7989v6.8313c0 1.2018-0.3803 2.1427-1.141 2.8226-0.7449 0.6642-1.8701 0.9963-3.3756 0.9963-1.5056 0-2.6387-0.3321-3.3994-0.9963-0.7449-0.6799-1.1173-1.6208-1.1173-2.8226v-6.8313z" fill="#403937"/>
<path d="m52.449 4.0853c0-2.6724 1.4105-4.0086 4.2314-4.0086 0.3645 0 0.8003 0.039533 1.3075 0.1186v2.7515c-0.2536-0.03162-0.4913-0.04744-0.7132-0.04744-0.8082 0-1.2124 0.37952-1.2124 1.1386v0.21348h1.9256v2.7989h-1.9256v11.196h-3.6133v-11.196h-1.355v-2.7989h1.355v-0.16604z" fill="#403937"/>
<path d="m59.46 4.0853c0-2.6724 1.4104-4.0086 4.2314-4.0086 0.3645 0 0.8003 0.039533 1.3074 0.1186v2.7515c-0.2535-0.03162-0.4913-0.04744-0.7131-0.04744-0.8083 0-1.2124 0.37952-1.2124 1.1386v0.21348h1.9255v2.7989h-1.9255v11.196h-3.6133v-11.196h-1.355v-2.7989h1.355v-0.16604z" fill="#403937"/>
<path d="m65.829 14.261v-6.428c0-1.2018 0.3724-2.1348 1.1173-2.7989 0.7448-0.67997 1.87-1.02 3.3756-1.02 2.9001 0 4.3502 1.273 4.3502 3.8189v4.8151h-5.3962v1.3283c0 0.4744 0.1268 0.8144 0.3803 1.02 0.2695 0.1897 0.8479 0.2846 1.7354 0.2846 0.9033 0 1.8859-0.1581 2.9477-0.4744v3.131c-1.1093 0.3005-2.2979 0.4507-3.5658 0.4507-3.2963 0-4.9445-1.3758-4.9445-4.1273zm3.4469-4.3407h2.0919v-2.0399c0-0.6009-0.3486-0.90135-1.0459-0.90135s-1.046 0.30045-1.046 0.90135v2.0399z" fill="#403937"/>
<path d="m76.09 14.261v-6.428c0-1.2018 0.3724-2.1348 1.1173-2.7989 0.7448-0.67997 1.87-1.02 3.3756-1.02 2.9001 0 4.3502 1.273 4.3502 3.8189v4.8151h-5.3962v1.3283c0 0.4744 0.1268 0.8144 0.3804 1.02 0.2694 0.1897 0.8478 0.2846 1.7353 0.2846 0.9033 0 1.8859-0.1581 2.9477-0.4744v3.131c-1.1093 0.3005-2.2979 0.4507-3.5658 0.4507-3.2963 0-4.9445-1.3758-4.9445-4.1273zm3.4469-4.3407h2.0919v-2.0399c0-0.6009-0.3486-0.90135-1.0459-0.90135s-1.046 0.30045-1.046 0.90135v2.0399z" fill="#403937"/>
<path d="m37.03 26.98c0-1.1678-0.6177-1.7516-1.853-1.7516h-1.97v10.646h1.97c1.2353 0 1.853-0.5969 1.853-1.7906v-7.1037zm-5.2079-2.9583h3.4329c1.0403 0 1.827 0.266 2.3601 0.798 0.5332 0.5319 0.7998 1.2456 0.7998 2.1408v7.1622c0 0.9212-0.2601 1.6478-0.7802 2.1798-0.5202 0.5319-1.3004 0.7979-2.3407 0.7979h-3.4719v-13.079z" fill="#403937"/>
<path d="m40.694 34.278v-5.4106c0-0.9212 0.2601-1.6543 0.7802-2.1992 0.5332-0.5579 1.3329-0.8369 2.3991-0.8369 1.0663 0 1.853 0.279 2.3602 0.8369 0.5201 0.5449 0.7802 1.278 0.7802 2.1992v3.3865h-4.9543v1.9657c0 0.5839 0.182 1.0185 0.5461 1.304 0.3641 0.2854 0.9298 0.4281 1.697 0.4281s1.5604-0.1167 2.3796-0.3503v1.2845c-0.6502 0.2076-1.4239 0.3114-2.3211 0.3114-2.4447 0-3.667-0.9731-3.667-2.9193zm1.3654-3.1724h3.6279v-2.2382c0-1.2196-0.6046-1.8294-1.814-1.8294-1.2093 0-1.8139 0.6098-1.8139 1.8294v2.2382z" fill="#403937"/>
<path d="m49.385 23.087h1.3848v14.013h-1.3848v-14.013z" fill="#403937"/>
<path d="m54.144 24.78c-0.5591 0-0.8387-0.2984-0.8387-0.8952 0-0.5969 0.2796-0.8953 0.8387-0.8953 0.5722 0 0.8582 0.2984 0.8582 0.8953 0 0.5968-0.286 0.8952-0.8582 0.8952zm-0.6827 1.3235h1.3849v10.996h-1.3849v-10.996z" fill="#403937"/>
<path d="m61.985 26.026h1.4043l-2.4576 11.074h-1.9505l-2.4577-11.074h1.4239l1.0728 5.0797 0.9557 5.0213c0.3901-2.1538 1.0598-5.5208 2.0091-10.101z" fill="#403937"/>
<path d="m64.866 34.278v-5.4106c0-0.9212 0.2601-1.6543 0.7802-2.1992 0.5331-0.5579 1.3329-0.8369 2.3991-0.8369 1.0663 0 1.853 0.279 2.3602 0.8369 0.5201 0.5449 0.7802 1.278 0.7802 2.1992v3.3865h-4.9543v1.9657c0 0.5839 0.182 1.0185 0.5461 1.304 0.3641 0.2854 0.9297 0.4281 1.6969 0.4281s1.5604-0.1167 2.3797-0.3503v1.2845c-0.6502 0.2076-1.4239 0.3114-2.3211 0.3114-2.4447 0-3.667-0.9731-3.667-2.9193zm1.3654-3.1724h3.6279v-2.2382c0-1.2196-0.6046-1.8294-1.814-1.8294-1.2093 0-1.8139 0.6098-1.8139 1.8294v2.2382z" fill="#403937"/>
<path d="m77.146 25.968h0.4876v1.3235h-0.6632c-0.4681 0-0.8907 0.1232-1.2678 0.3698-0.117 0.0778-0.3706 0.253-0.7607 0.5255v8.9137h-1.3849v-11.074h1.3264v0.8369c0.039-0.0259 0.1365-0.0973 0.2926-0.2141 0.169-0.1167 0.2665-0.1816 0.2925-0.1946 0.0391-0.0259 0.1236-0.0778 0.2536-0.1557 0.1431-0.0778 0.2471-0.1233 0.3121-0.1362 0.078-0.026 0.182-0.0584 0.3121-0.0973 0.195-0.0649 0.4616-0.0974 0.7997-0.0974z" fill="#403937"/>
<path d="m83.567 26.026h1.3849l-3.0428 13.974h-1.3263l0.6046-2.8999h-0.6827l-2.4186-11.074h1.4044l1.1703 5.5079 0.8582 4.5931c0.2601-1.531 0.5461-3.0621 0.8582-4.5931l1.1898-5.5079z" fill="#403937"/>
</svg>
